<?xml version="1.0" standalone="no"?>
<!DOCTYPE svg PUBLIC "-//W3C//DTD SVG 20010904//EN"
 "http://www.w3.org/TR/2001/REC-SVG-20010904/DTD/svg10.dtd">
<svg version="1.0" xmlns="http://www.w3.org/2000/svg"
 width="600.000000pt" height="504.000000pt" viewBox="0 0 600.000000 504.000000"
 preserveAspectRatio="xMidYMid meet">
<metadata>
Created by potrace 1.15, written by Peter Selinger 2001-2017
</metadata>
<g transform="translate(0.000000,504.000000) scale(0.100000,-0.100000)"
fill="#000000" stroke="none">
<path d="M1930 3395 l0 -1645 180 0 180 0 0 775 0 775 165 0 165 0 0 -775 0
-775 195 0 195 0 0 775 0 775 60 0 60 0 0 -775 0 -775 280 0 280 0 0 775 0
775 60 0 60 0 0 -775 0 -775 65 0 65 0 0 775 0 775 30 0 30 0 0 -775 0 -775
410 0 410 0 0 1645 0 1645 -1445 0 -1445 0 0 -1645z"/>
<path d="M0 915 l0 -585 105 0 105 0 0 56 0 57 44 -41 c78 -72 118 -87 226
-87 87 0 100 3 148 30 134 74 202 214 202 417 0 263 -137 428 -355 428 -81 0
-144 -22 -198 -71 -25 -21 -48 -39 -51 -39 -3 0 -6 95 -6 210 l0 210 -110 0
-110 0 0 -585z m482 96 c40 -15 88 -73 103 -125 17 -57 20 -204 5 -257 -13
-46 -47 -96 -83 -123 -44 -32 -131 -29 -184 6 -135 89 -135 406 0 488 34 21
117 27 159 11z"/>
<path d="M2290 915 l0 -585 110 0 110 0 0 585 0 585 -110 0 -110 0 0 -585z"/>
<path d="M1401 1174 c-133 -48 -224 -160 -252 -310 -15 -77 -6 -235 16 -299
42 -122 121 -201 237 -236 92 -28 249 -24 320 8 64 29 142 104 173 166 l26 52
-98 17 c-130 22 -125 23 -146 -21 -67 -145 -289 -80 -305 89 l-5 50 283 0 283
0 -6 90 c-14 194 -85 313 -227 379 -71 33 -229 41 -299 15z m230 -178 c40 -27
69 -79 76 -137 l6 -39 -173 0 -173 0 7 46 c13 97 74 154 166 154 42 0 64 -6
91 -24z"/>
<path d="M3070 1175 c-115 -32 -187 -114 -197 -223 -5 -50 -1 -69 20 -114 41
-91 102 -124 320 -178 153 -38 185 -52 193 -85 16 -64 -45 -105 -156 -105 -93
0 -141 25 -171 88 -18 35 -25 43 -43 38 -11 -2 -60 -10 -109 -17 -82 -11 -87
-13 -81 -33 24 -78 85 -151 157 -187 68 -35 135 -49 242 -49 148 0 245 32 312
102 94 98 97 255 7 340 -42 39 -121 71 -269 108 -172 43 -204 56 -212 88 -13
55 32 82 141 82 91 0 135 -20 156 -70 9 -21 18 -29 29 -26 9 3 54 12 100 21
47 8 86 17 88 19 7 7 -25 75 -53 111 -15 21 -53 48 -92 67 -63 31 -72 33 -196
35 -93 2 -147 -2 -186 -12z"/>
<path d="M4333 1160 c-34 -17 -75 -46 -92 -65 -17 -19 -33 -35 -36 -35 -3 0
-5 25 -5 55 l0 55 -100 0 -100 0 0 -585 0 -585 110 0 110 0 0 210 c0 116 2
210 6 210 3 0 19 -14 37 -30 18 -17 56 -42 85 -56 47 -24 61 -26 135 -22 99 6
162 34 224 101 81 87 113 186 113 342 0 157 -34 256 -117 338 -69 69 -121 91
-223 95 -79 3 -90 1 -147 -28z m140 -154 c41 -17 91 -73 108 -123 8 -22 14
-80 14 -138 0 -89 -3 -106 -28 -157 -70 -144 -243 -141 -319 6 -27 51 -38 221
-18 283 36 111 146 170 243 129z"/>
<path d="M5436 1179 c-21 -5 -65 -23 -97 -41 -154 -81 -236 -259 -210 -456 31
-244 201 -381 461 -370 85 3 105 8 165 37 191 94 280 298 229 521 -28 126
-111 226 -234 284 -58 27 -76 31 -170 33 -58 1 -122 -2 -144 -8z m241 -205
c21 -16 49 -52 63 -80 21 -42 25 -63 25 -144 0 -81 -4 -102 -25 -144 -38 -75
-87 -109 -164 -114 -49 -3 -71 0 -104 17 -162 82 -164 394 -4 481 29 16 52 20
104 17 57 -2 73 -7 105 -33z"/>
</g>
</svg>
